<svg id="Layer_1" data-name="Layer 1" xmlns="http://www.w3.org/2000/svg" viewBox="0 0 100 109.33">
  <title>kisd-th-logo</title>
  <g>
    <path d="M1,.16H3.47V5.37h.06C3.75,4.9,4,4.45,4.26,4L6.57.16h3l-3.51,5,3.66,6.68H6.86l-2.54-5L3.47,8v3.84H1Z"/>
    <path d="M13.86.16v11.7H11.33V.16Z"/>
    <path d="M16.59,9.26a6.15,6.15,0,0,0,2.64.64C20.4,9.9,21,9.38,21,8.61s-.55-1.18-1.82-1.72c-1.84-.78-2.92-1.89-2.92-3.4,0-2,1.55-3.49,4.21-3.49A5.85,5.85,0,0,1,23.1.54L22.58,2.6a4.89,4.89,0,0,0-2.15-.5c-1.09,0-1.62.56-1.62,1.15,0,.74.56,1.07,2,1.7,1.91.83,2.75,1.93,2.75,3.46,0,2-1.51,3.61-4.45,3.61a7.08,7.08,0,0,1-3-.64Z"/>
    <path d="M25.75.31A19.31,19.31,0,0,1,28.94.07a6.49,6.49,0,0,1,4.33,1.2,5.4,5.4,0,0,1,1.84,4.5,6.09,6.09,0,0,1-1.84,4.81A7.32,7.32,0,0,1,28.42,12a22.54,22.54,0,0,1-2.67-.15Zm2.53,9.63a6,6,0,0,0,.77,0c2,0,3.38-1.23,3.38-4.17,0-2.43-1.18-3.75-3.17-3.75a3.79,3.79,0,0,0-1,.09Z"/>
  </g>
  <g>
    <path d="M.58,18.74h.88v3.37h0c.18-.28.35-.54.52-.78L3.9,18.74H5l-2.29,3,2.45,4h-1l-2-3.43-.59.74v2.69H.58Z"/>
    <path d="M9.89,23.21c0,1.88-1.18,2.66-2.26,2.66s-2.19-.95-2.19-2.6,1-2.65,2.26-2.65S9.89,21.61,9.89,23.21ZM6.24,19.32a.51.51,0,0,1,.51-.51.51.51,0,0,1,0,1A.5.5,0,0,1,6.24,19.32Zm.1,3.93c0,1,.49,1.94,1.33,1.94S9,24.26,9,23.23c0-.82-.35-1.93-1.33-1.93S6.34,22.35,6.34,23.25Zm2.23-3.42a.5.5,0,0,1-.49-.51.51.51,0,0,1,.51-.51.51.51,0,0,1,0,1Z"/>
    <path d="M11,18.41h.87v7.35H11Z"/>
    <path d="M13.29,22.06c0-.54,0-.93,0-1.34H14l.05.77h0a1.69,1.69,0,0,1,1.51-.87c.69,0,1.61.45,1.61,2v3.11h-.88v-3c0-.75-.25-1.41-1-1.41a1.17,1.17,0,0,0-1.09.91,1.75,1.75,0,0,0-.05.43v3.07h-.88Z"/>
    <path d="M21.56,18.74v7h-.88v-7Z"/>
    <path d="M23.08,22.06c0-.54,0-.93,0-1.34h.77l.05.77h0a1.69,1.69,0,0,1,1.51-.87c.69,0,1.61.45,1.61,2v3.11h-.88v-3c0-.75-.25-1.41-1-1.41a1.17,1.17,0,0,0-1.09.91,1.71,1.71,0,0,0-.06.43v3.07h-.87Z"/>
    <path d="M29.42,19.52v1.2h1.21v.66H29.42v2.81c0,.63.19.93.64.93a1.86,1.86,0,0,0,.47-.05l0,.67a2.15,2.15,0,0,1-.75.12,1.18,1.18,0,0,1-.92-.37,1.93,1.93,0,0,1-.34-1.3V21.38h-.73v-.66h.73v-.91Z"/>
    <path d="M32,23.37c0,1.34.75,1.8,1.57,1.8a2.93,2.93,0,0,0,1.23-.24l.14.63a3.46,3.46,0,0,1-1.5.3,2.26,2.26,0,0,1-2.29-2.55c0-1.55.84-2.69,2.18-2.69s1.87,1.34,1.87,2.32a2.31,2.31,0,0,1,0,.43Zm2.36-.63c0-.71-.27-1.47-1.12-1.47s-1.16.82-1.23,1.47Z"/>
    <path d="M36.3,22.21c0-.54,0-1.06,0-1.49H37l0,.93h0a1.43,1.43,0,0,1,1.29-1,.79.79,0,0,1,.23,0v.86a1,1,0,0,0-.26,0A1.24,1.24,0,0,0,37.2,22.6a3,3,0,0,0,0,.44v2.72H36.3Z"/>
    <path d="M39.47,22.06c0-.54,0-.93,0-1.34h.78l0,.77h0a1.69,1.69,0,0,1,1.51-.87c.69,0,1.6.45,1.6,2v3.11h-.87v-3c0-.75-.25-1.41-1-1.41a1.19,1.19,0,0,0-1.1.91,1.75,1.75,0,0,0,0,.43v3.07h-.87Z"/>
    <path d="M48.06,24.57a7.33,7.33,0,0,0,.07,1.19h-.79l-.08-.6h0a1.66,1.66,0,0,1-1.38.71,1.39,1.39,0,0,1-1.43-1.45c0-1.23,1-1.87,2.76-1.86v-.12c0-.49-.14-1.16-1-1.15a2.14,2.14,0,0,0-1.17.33l-.2-.59a2.93,2.93,0,0,1,1.51-.41c1.38,0,1.78.94,1.78,2Zm-.86-1.39c-.82,0-1.91.13-1.91,1.14a.78.78,0,0,0,.79.88,1.1,1.1,0,0,0,1.08-.81,1,1,0,0,0,0-.3Z"/>
    <path d="M50.44,19.52v1.2h1.21v.66H50.44v2.81c0,.63.2.93.65.93a1.92,1.92,0,0,0,.47-.05l0,.67a2.24,2.24,0,0,1-.75.12,1.2,1.2,0,0,1-.93-.37,1.94,1.94,0,0,1-.33-1.3V21.38h-.73v-.66h.73v-.91Z"/>
    <path d="M53.57,19.33a.54.54,0,1,1-1.08,0,.54.54,0,0,1,.54-.56A.53.53,0,0,1,53.57,19.33Zm-1,6.43v-5h.88v5Z"/>
    <path d="M59,23.21c0,1.88-1.18,2.66-2.26,2.66-1.23,0-2.19-.95-2.19-2.6s1-2.65,2.26-2.65S59,21.61,59,23.21Zm-3.55,0c0,1,.49,1.94,1.33,1.94s1.32-.93,1.32-2c0-.82-.34-1.93-1.32-1.93S55.45,22.35,55.45,23.25Z"/>
    <path d="M60.09,22.06c0-.54,0-.93-.05-1.34h.77l.06.77h0a1.69,1.69,0,0,1,1.51-.87c.69,0,1.6.45,1.6,2v3.11h-.87v-3c0-.75-.25-1.41-1-1.41a1.19,1.19,0,0,0-1.1.91,1.75,1.75,0,0,0,0,.43v3.07h-.87Z"/>
    <path d="M68.67,24.57a7.26,7.26,0,0,0,.08,1.19H68l-.08-.6h0a1.66,1.66,0,0,1-1.38.71A1.39,1.39,0,0,1,65,24.42c0-1.23,1-1.87,2.76-1.86v-.12c0-.49-.14-1.16-1-1.15a2.14,2.14,0,0,0-1.17.33l-.2-.59a2.93,2.93,0,0,1,1.51-.41c1.38,0,1.77.94,1.77,2Zm-.85-1.39c-.82,0-1.91.13-1.91,1.14a.78.78,0,0,0,.78.88,1.1,1.1,0,0,0,1.09-.81,1,1,0,0,0,0-.3Z"/>
    <path d="M70.06,18.41h.88v7.35h-.88Z"/>
    <path d="M74.31,24.71a2.8,2.8,0,0,0,1.44.4c.88,0,1.39-.47,1.39-1.19s-.38-1-1.21-1.41-1.7-1-1.7-2a2,2,0,0,1,2.16-1.89,2.74,2.74,0,0,1,1.37.32l-.23.72a2.43,2.43,0,0,0-1.18-.3,1.08,1.08,0,0,0-1.23,1c0,.66.4,1,1.28,1.37C77.49,22.3,78,22.9,78,23.85a2,2,0,0,1-2.31,2,3.32,3.32,0,0,1-1.62-.41Z"/>
    <path d="M82.43,25.59a2.74,2.74,0,0,1-1.26.27,2.3,2.3,0,0,1-2.31-2.57,2.47,2.47,0,0,1,2.5-2.67,2.69,2.69,0,0,1,1.11.24l-.2.68a2.07,2.07,0,0,0-.92-.21c-1,0-1.59.9-1.59,1.92,0,1.18.65,1.89,1.58,1.89a2.32,2.32,0,0,0,1-.21Z"/>
    <path d="M83.41,18.41h.87v3h0a1.92,1.92,0,0,1,.58-.59,1.87,1.87,0,0,1,.87-.23c.66,0,1.57.44,1.57,2v3.1h-.87v-3c0-.76-.26-1.41-1-1.41a1.18,1.18,0,0,0-1.1.89,1.31,1.31,0,0,0,0,.42v3.1h-.87Z"/>
    <path d="M92.84,23.21c0,1.88-1.18,2.66-2.26,2.66-1.23,0-2.19-.95-2.19-2.6s1-2.65,2.26-2.65S92.84,21.61,92.84,23.21Zm-3.56,0c0,1,.49,1.94,1.34,1.94s1.32-.93,1.32-2c0-.82-.34-1.93-1.32-1.93S89.28,22.35,89.28,23.25Z"/>
    <path d="M98,23.21c0,1.88-1.18,2.66-2.26,2.66-1.23,0-2.19-.95-2.19-2.6s1-2.65,2.26-2.65S98,21.61,98,23.21Zm-3.55,0c0,1,.49,1.94,1.33,1.94s1.32-.93,1.32-2c0-.82-.34-1.93-1.32-1.93S94.49,22.35,94.49,23.25Z"/>
    <path d="M99.12,18.41H100v7.35h-.88Z"/>
  </g>
  <g>
    <path d="M4.67,35.37C4.67,37.26,3.49,38,2.41,38c-1.23,0-2.19-1-2.19-2.6s1-2.64,2.26-2.64S4.67,33.78,4.67,35.37Zm-3.55,0c0,1,.48,1.94,1.33,1.94s1.32-.93,1.32-2c0-.82-.34-1.93-1.32-1.93S1.12,34.52,1.12,35.41Z"/>
    <path d="M5.86,37.92V33.55H5.17v-.67h.69v-.26a2.33,2.33,0,0,1,.54-1.69,1.64,1.64,0,0,1,1.16-.46,1.75,1.75,0,0,1,.74.15l-.13.68a1.18,1.18,0,0,0-.54-.11c-.71,0-.9.67-.9,1.41v.28H7.86v.67H6.73v4.37Z"/>
    <path d="M10.67,31a9.3,9.3,0,0,1,1.67-.14,3.53,3.53,0,0,1,2.49.77,3.3,3.3,0,0,1,1,2.61,3.8,3.8,0,0,1-1,2.81,3.79,3.79,0,0,1-2.76.94,11.5,11.5,0,0,1-1.42-.08Zm.88,6.24a5.47,5.47,0,0,0,.73,0c1.63,0,2.61-.95,2.61-3,0-1.69-.81-2.72-2.49-2.72a4.36,4.36,0,0,0-.85.08Z"/>
    <path d="M17.45,35.54c0,1.33.75,1.79,1.56,1.79a2.72,2.72,0,0,0,1.23-.24l.15.64a3.65,3.65,0,0,1-1.5.29,2.25,2.25,0,0,1-2.29-2.54c0-1.56.84-2.69,2.17-2.69s1.88,1.33,1.88,2.31a2.44,2.44,0,0,1,0,.44Zm2.36-.64c0-.71-.28-1.47-1.12-1.47s-1.17.83-1.23,1.47Z"/>
    <path d="M21.59,37a2.26,2.26,0,0,0,1.09.33c.61,0,.91-.31.91-.74s-.23-.67-.85-1c-.84-.35-1.25-.83-1.25-1.43a1.49,1.49,0,0,1,1.64-1.44,2.22,2.22,0,0,1,1.14.29l-.22.64a1.8,1.8,0,0,0-.93-.27.7.7,0,0,0-.78.68c0,.39.25.57.85.86.79.34,1.24.79,1.24,1.52,0,.92-.68,1.51-1.77,1.51a2.49,2.49,0,0,1-1.29-.34Z"/>
    <path d="M26.49,31.49a.55.55,0,1,1-1.09,0,.54.54,0,0,1,.55-.56A.53.53,0,0,1,26.49,31.49Zm-1,6.43v-5h.87v5Z"/>
    <path d="M31.72,37.22a3,3,0,0,1-.65,2.27,2.44,2.44,0,0,1-1.68.58,3.19,3.19,0,0,1-1.52-.36l.22-.68a2.57,2.57,0,0,0,1.32.34c.85,0,1.44-.46,1.44-1.69v-.55h0a1.54,1.54,0,0,1-1.4.78c-1.15,0-1.95-1-1.95-2.47,0-1.75,1-2.65,2.06-2.65a1.49,1.49,0,0,1,1.39.79h0l0-.7h.77c0,.35,0,.78,0,1.44Zm-.88-2.42a1.64,1.64,0,0,0,0-.4,1.15,1.15,0,0,0-1.12-.9c-.78,0-1.32.74-1.32,1.89s.48,1.84,1.32,1.84a1.15,1.15,0,0,0,1.1-.88,1.58,1.58,0,0,0,.06-.48Z"/>
    <path d="M33.09,34.22c0-.54,0-.92,0-1.34h.77l0,.77h0a1.68,1.68,0,0,1,1.51-.86c.69,0,1.61.44,1.61,2v3.11h-.88v-3c0-.75-.25-1.4-1-1.4a1.18,1.18,0,0,0-1.1.9,1.81,1.81,0,0,0,0,.43v3.07h-.87Z"/>
  </g>
  <g>
    <path d="M3,62.74H0V61H8v1.78H5v9.93H3Z"/>
    <path d="M9.56,69a2.14,2.14,0,0,0,2.37,2.25A5.89,5.89,0,0,0,14,70.9l.29,1.42a6.74,6.74,0,0,1-2.71.51c-2.57,0-4-1.67-4-4.26S9,64,11.41,64s3.36,2.07,3.36,4a5.91,5.91,0,0,1-.07.92Zm3.28-1.44c0-1-.37-2.09-1.57-2.09s-1.65,1.18-1.71,2.09Z"/>
    <path d="M22,72.45a5.55,5.55,0,0,1-2.1.38c-2.45,0-4-1.64-4-4.31a4.2,4.2,0,0,1,4.39-4.46,4.74,4.74,0,0,1,1.81.34L21.75,66a3.22,3.22,0,0,0-1.41-.3c-1.51,0-2.36,1.23-2.36,2.78,0,1.74,1,2.74,2.36,2.74a3.27,3.27,0,0,0,1.44-.29Z"/>
    <path d="M23.47,60.43h2.05v4.88h0a2.7,2.7,0,0,1,1-.89,2.74,2.74,0,0,1,1.37-.36c1.41,0,2.7,1,2.7,3.54v5.07h-2v-4.9c0-1.13-.37-2-1.45-2a1.56,1.56,0,0,0-1.47,1.15,1.8,1.8,0,0,0-.09.64v5.14H23.47Z"/>
    <path d="M32.68,66.7c0-1,0-1.74-.07-2.49H34.4l.1,1.2h0A2.86,2.86,0,0,1,37,64.06c1.44,0,2.74,1,2.74,3.45v5.16H37.73V67.74c0-1.11-.36-2-1.42-2a1.54,1.54,0,0,0-1.48,1.18,2.13,2.13,0,0,0-.1.71v5h-2Z"/>
    <path d="M49.23,68.38c0,3.2-2.06,4.46-3.94,4.46-2.2,0-3.87-1.59-3.87-4.34s1.74-4.44,4-4.44S49.23,65.76,49.23,68.38Zm-5.71.07c0,1.56.64,2.88,1.82,2.88s1.79-1.32,1.79-2.9c0-1.3-.47-2.86-1.79-2.86S43.52,67.1,43.52,68.45Z"/>
    <path d="M50.89,60.43h2V72.67h-2Z"/>
    <path d="M62.46,68.38c0,3.2-2.07,4.46-4,4.46-2.2,0-3.87-1.59-3.87-4.34s1.74-4.44,4-4.44S62.46,65.76,62.46,68.38Zm-5.72.07c0,1.56.64,2.88,1.82,2.88s1.8-1.32,1.8-2.9c0-1.3-.47-2.86-1.8-2.86S56.74,67.1,56.74,68.45Z"/>
    <path d="M71.18,71.51c0,1.84-.35,3-1.17,3.75a4.46,4.46,0,0,1-3,1,5.64,5.64,0,0,1-2.65-.59l.43-1.58a4.49,4.49,0,0,0,2.21.57c1.3,0,2.18-.73,2.18-2.48v-.7h0a2.47,2.47,0,0,1-2.19,1.15c-2,0-3.28-1.79-3.28-4.12,0-2.83,1.67-4.44,3.51-4.44a2.43,2.43,0,0,1,2.19,1.21h0l.09-1.06h1.79c0,.61-.07,1.34-.07,2.5Zm-2.05-4a2,2,0,0,0-.07-.58,1.56,1.56,0,0,0-1.51-1.25c-1.1,0-1.84,1.08-1.84,2.76s.67,2.63,1.82,2.63A1.53,1.53,0,0,0,69,69.89a2.58,2.58,0,0,0,.11-.73Z"/>
    <path d="M74.62,64.21,76,68.76c.16.54.32,1.15.42,1.62h0c.11-.47.26-1.08.4-1.62L78,64.21h2.15l-2,5.86c-.94,2.76-1.67,4.29-2.64,5.24a4.21,4.21,0,0,1-2.1,1.15l-.53-1.74a3.6,3.6,0,0,0,1.22-.66,4,4,0,0,0,1-1.3,1.07,1.07,0,0,0,.12-.38,1,1,0,0,0-.08-.39l-2.85-7.78Z"/>
  </g>
  <g>
    <path d="M3.14,86.81,2.26,90H.17l3.41-11.7H6.13L9.52,90H7.38l-.94-3.23Zm3-1.56-.8-2.83c-.21-.73-.38-1.62-.54-2.34h0c-.16.72-.33,1.63-.52,2.34l-.78,2.83Z"/>
    <path d="M10.93,84.21c0-1,0-1.88-.07-2.62h1.77l.09,1.52h.07a2.34,2.34,0,0,1,2.11-1.68,2.13,2.13,0,0,1,.47,0v2a2.64,2.64,0,0,0-.55,0A1.82,1.82,0,0,0,13,85a3.54,3.54,0,0,0,0,.69V90H10.93Z"/>
    <path d="M19.44,79.43v2.16h1.91V83.1H19.44V87c0,1,.31,1.48,1,1.48a2.27,2.27,0,0,0,.74-.09L21.26,90a5,5,0,0,1-1.46.19,2.25,2.25,0,0,1-1.71-.64,3.21,3.21,0,0,1-.66-2.35V83.1H16.28V81.59h1.15V80Z"/>
    <path d="M22.71,88.15a4.19,4.19,0,0,0,1.94.56c.85,0,1.27-.39,1.27-1s-.31-.87-1.28-1.27C23.11,85.86,22.5,85,22.5,84c0-1.47,1.18-2.6,3-2.6a4.63,4.63,0,0,1,2.05.47l-.42,1.47a3.27,3.27,0,0,0-1.59-.45c-.73,0-1.12.39-1.12.89s.35.76,1.34,1.2c1.43.57,2.1,1.37,2.1,2.57,0,1.58-1.2,2.62-3.24,2.62a4.74,4.74,0,0,1-2.33-.55Z"/>
    <path d="M32.84,87.82a5.46,5.46,0,0,0,2.53.66c1.29,0,2-.64,2-1.61s-.59-1.43-1.91-2c-1.74-.73-2.89-1.81-2.89-3.35,0-1.9,1.5-3.34,3.93-3.34A5.57,5.57,0,0,1,39,78.7l-.45,1.69a4.42,4.42,0,0,0-2.07-.51c-1.26,0-1.82.71-1.82,1.41,0,.9.61,1.32,2.07,2,1.85.83,2.72,1.89,2.72,3.44,0,1.94-1.44,3.49-4.18,3.49a6,6,0,0,1-2.85-.66Z"/>
    <path d="M46.92,89.82a5.55,5.55,0,0,1-2.1.38c-2.45,0-4-1.63-4-4.31a4.2,4.2,0,0,1,4.39-4.46,4.77,4.77,0,0,1,1.81.35l-.35,1.56a3.22,3.22,0,0,0-1.41-.3c-1.51,0-2.36,1.24-2.36,2.78,0,1.74,1,2.75,2.36,2.75a3.12,3.12,0,0,0,1.44-.3Z"/>
    <path d="M50.52,79.26a1.09,1.09,0,0,1-1.16,1.13,1.08,1.08,0,0,1-1.11-1.13,1.1,1.1,0,0,1,1.14-1.13A1.08,1.08,0,0,1,50.52,79.26ZM48.35,90V81.59h2V90Z"/>
    <path d="M54.05,86.38a2.15,2.15,0,0,0,2.38,2.26,5.81,5.81,0,0,0,2.1-.37l.29,1.43a6.93,6.93,0,0,1-2.71.5c-2.57,0-4-1.67-4-4.25s1.39-4.54,3.84-4.54,3.35,2.07,3.35,4a5.8,5.8,0,0,1-.07.92Zm3.28-1.44c0-1-.36-2.09-1.56-2.09S54.12,84,54.05,84.94Z"/>
    <path d="M60.86,84.07c0-1,0-1.74-.07-2.48h1.79l.1,1.19h0a2.86,2.86,0,0,1,2.5-1.35c1.44,0,2.74,1,2.74,3.46V90h-2V85.11c0-1.11-.36-2-1.42-2A1.55,1.55,0,0,0,63,84.29a2.2,2.2,0,0,0-.1.72v5h-2Z"/>
    <path d="M75.75,89.82a5.64,5.64,0,0,1-2.1.38c-2.45,0-4.05-1.63-4.05-4.31A4.2,4.2,0,0,1,74,81.43a4.73,4.73,0,0,1,1.81.35l-.35,1.56A3.18,3.18,0,0,0,74,83c-1.51,0-2.36,1.24-2.36,2.78,0,1.74,1,2.75,2.36,2.75a3.2,3.2,0,0,0,1.45-.3Z"/>
    <path d="M78.56,86.38a2.16,2.16,0,0,0,2.38,2.26,5.77,5.77,0,0,0,2.1-.37l.3,1.43a7,7,0,0,1-2.71.5c-2.57,0-4-1.67-4-4.25s1.39-4.54,3.84-4.54,3.35,2.07,3.35,4a4.79,4.79,0,0,1-.07.92Zm3.28-1.44c0-1-.36-2.09-1.56-2.09S78.63,84,78.56,84.94Z"/>
    <path d="M85.27,88.15a4.19,4.19,0,0,0,1.94.56c.86,0,1.27-.39,1.27-1s-.31-.87-1.28-1.27C85.67,85.86,85.06,85,85.06,84c0-1.47,1.18-2.6,3-2.6a4.63,4.63,0,0,1,2,.47l-.41,1.47a3.34,3.34,0,0,0-1.6-.45c-.73,0-1.11.39-1.11.89s.34.76,1.33,1.2c1.43.57,2.11,1.37,2.11,2.57,0,1.58-1.2,2.62-3.25,2.62a4.74,4.74,0,0,1-2.33-.55Z"/>
  </g>
  <g>
    <path d="M2.92,99.64H.09V97.45H8.32v2.19H5.45v9.52H2.92Z"/>
    <path d="M12.72,97.45V102h3.77V97.45H19v11.71H16.49v-4.9H12.72v4.9H10.18V97.45Z"/>
    <path d="M25.05,97.45h2.52v5.21h.05c.23-.47.47-.92.73-1.35l2.31-3.86h3l-3.51,5,3.67,6.69H31l-2.54-5-.85,1.15v3.84H25.05Z"/>
    <path d="M42.28,104.83c0,3.25-2.13,4.5-4.09,4.5-2.35,0-4-1.63-4-4.38s1.75-4.48,4.17-4.48S42.28,102.23,42.28,104.83Zm-7-6.56a1.17,1.17,0,0,1,1.19-1.19,1.13,1.13,0,0,1,1.13,1.19,1.14,1.14,0,0,1-1.14,1.19A1.18,1.18,0,0,1,35.29,98.27Zm1.44,6.63c0,1.44.5,2.59,1.53,2.59s1.44-1.15,1.44-2.61c0-1.23-.4-2.57-1.46-2.57S36.73,103.67,36.73,104.9Zm3.19-5.44a1.19,1.19,0,0,1,0-2.38,1.13,1.13,0,0,1,1.14,1.19A1.14,1.14,0,0,1,40,99.46Z"/>
    <path d="M43.82,96.91h2.53v12.25H43.82Z"/>
    <path d="M48.33,103.34c0-1,0-1.9-.07-2.68h2.19l.12,1.11h.06a2.89,2.89,0,0,1,2.46-1.28c1.7,0,2.82,1.2,2.82,3.51v5.16H53.37v-4.9c0-1-.33-1.7-1.2-1.7a1.28,1.28,0,0,0-1.2.92,2,2,0,0,0-.1.69v5H48.33Z"/>
  </g>
</svg>
